<svg width="496" height="496" viewBox="0 0 496 496" fill="none" xmlns="http://www.w3.org/2000/svg">
<path d="M476 208H475.312L463.912 196.6C462.088 87.888 373.144 0 264 0H232C122.856 0 33.912 87.888 32.088 196.6L20.416 208.264C8.88 210 0 219.984 0 232C0 245.232 10.768 256 24 256H32.632C33.68 263.272 36.112 270.248 39.848 276.544C29.76 285.84 24 297.104 24 308C24 321.064 29.752 332.776 38.824 340.848L37.352 340C33.848 346.048 32 352.968 32 360C32 370.776 36.328 380.528 43.28 387.728C36.528 391.976 32 399.448 32 408V440C32 470.88 57.12 496 88 496H408C438.88 496 464 470.88 464 440V408C464 399.448 459.472 391.976 452.72 387.728C459.672 380.528 464 370.776 464 360C464 352.968 462.152 346.048 458.648 340L457.184 340.848C466.248 332.776 472 321.064 472 308C472 295.408 466.576 284.528 456.32 276.24C461.296 267.728 464 258.016 464 248H476C487.024 248 496 239.024 496 228C496 216.976 487.024 208 476 208ZM40 308C40 301.584 44.048 294.248 50.952 288H120V304H136V288H320V388C320 394.616 314.616 400 308 400C301.384 400 296 394.616 296 388V332C296 316.56 283.44 304 268 304C252.56 304 240 316.56 240 332V436C240 442.616 234.616 448 228 448C221.384 448 216 442.616 216 436V356C216 340.56 203.44 328 188 328C172.56 328 160 340.56 160 356V396C160 402.616 154.616 408 148 408C141.384 408 136 402.616 136 396V320H120V334.704C113.824 332.848 108.352 328.984 104.664 323.432L98 313.376L91.336 323.432C86.112 331.304 77.392 336 68 336C52.56 336 40 323.44 40 308ZM97.888 264L113.888 256H140.944L148.944 240H163.056L171.056 256H205.768L213.768 232H235.056L243.056 248H264V264H301.768L309.768 240H315.056L323.056 256H356.944L364.944 240H380.688L396.688 256H428.944L436.048 241.784L447.808 245.704C447.856 246.472 448 247.224 448 248C448 256.744 445.016 265.088 439.8 272H56.2C51.408 265.656 48.624 258.104 48.192 250.136L64 243.816V264H97.888ZM278 340.16C278.624 340.736 279.344 341.208 280 341.752V384H256V351.24C264.256 349.712 271.88 345.888 278 340.16ZM256 334.704V332C256 325.384 261.384 320 268 320C269.752 320 271.4 320.392 272.896 321.072L271.328 323.432C267.648 328.984 262.176 332.848 256 334.704ZM200 356V384H176V356C176 349.384 181.384 344 188 344C194.616 344 200 349.384 200 356ZM120 351.248V384H96H72C58.768 384 48 373.232 48 360C48 355.984 49.072 352.064 50.976 348.568C56.216 350.776 61.968 352 68 352C79.28 352 89.944 347.696 98 340.168C104.12 345.888 111.744 349.72 120 351.248ZM448 440C448 462.056 430.056 480 408 480H88C65.944 480 48 462.056 48 440V408C48 403.592 51.592 400 56 400H72H96H120.408C122.368 413.536 133.936 424 148 424C162.064 424 173.632 413.536 175.592 400H200V436C200 451.44 212.56 464 228 464C243.44 464 256 451.44 256 436V400H282.808C287.32 409.424 296.872 416 308 416C319.128 416 328.68 409.424 333.192 400H352H424H440C444.408 400 448 403.592 448 408V440ZM424 384H352H336V341.896C336.68 341.336 337.352 340.76 338 340.16C346.056 347.696 356.712 352 368 352C379.28 352 389.944 347.696 398 340.168C406.056 347.696 416.72 352 428 352C434.032 352 439.784 350.776 445.024 348.568C446.928 352.064 448 355.984 448 360C448 373.232 437.232 384 424 384ZM428 336C418.608 336 409.888 331.304 404.664 323.432L398 313.376L391.336 323.432C386.112 331.304 377.392 336 368 336C358.608 336 349.888 331.304 344.664 323.432L338 313.384L336 316.4V288H445.456C452.544 293.368 456 299.928 456 308C456 323.44 443.44 336 428 336ZM476 232H457.296L427.952 222.216L419.056 240H403.312L387.312 224H355.056L347.056 240H332.944L324.944 224H298.232L290.232 248H280V232H252.944L244.944 216H202.232L194.232 240H180.944L172.944 224H139.056L131.056 240H110.112L94.112 248H80V220.184L30.464 240H24C19.592 240 16 236.408 16 232C16 227.592 19.592 224 24 224H27.312L43.312 208H408V192H48.168C52.376 94.24 133.224 16 232 16H264C362.776 16 443.624 94.24 447.832 192H424V208H452.688L468.688 224H476C478.208 224 480 225.792 480 228C480 230.208 478.208 232 476 232Z" fill="white"/>
<path d="M248 40H232V56H248V40Z" fill="white"/>
<path d="M304 64H288V80H304V64Z" fill="white"/>
<path d="M368 72H352V88H368V72Z" fill="white"/>
<path d="M264 104H248V120H264V104Z" fill="white"/>
<path d="M200 80H184V96H200V80Z" fill="white"/>
<path d="M176 48H160V64H176V48Z" fill="white"/>
<path d="M136 96H120V112H136V96Z" fill="white"/>
</svg>
